<?xml version="1.0" encoding="utf-8"?>
<!-- Generator: Adobe Illustrator 15.0.0, SVG Export Plug-In . SVG Version: 6.00 Build 0)  -->
<!DOCTYPE svg PUBLIC "-//W3C//DTD SVG 1.1//EN" "http://www.w3.org/Graphics/SVG/1.1/DTD/svg11.dtd">
<svg version="1.1" xmlns="http://www.w3.org/2000/svg" xmlns:xlink="http://www.w3.org/1999/xlink" x="0px" y="0px" width="32px"
	 height="32px" viewBox="0 0 32 32" enable-background="new 0 0 32 32" xml:space="preserve">
<g id="Layer_1">
	<linearGradient id="SVGID_1_" gradientUnits="userSpaceOnUse" x1="4.5337" y1="104.6387" x2="27.1616" y2="82.0108">
		<stop  offset="0" style="stop-color:#35517D"/>
		<stop  offset="0.0268" style="stop-color:#47618A"/>
		<stop  offset="0.0875" style="stop-color:#6E84A9"/>
		<stop  offset="0.1493" style="stop-color:#94A6C4"/>
		<stop  offset="0.2117" style="stop-color:#B6C4DA"/>
		<stop  offset="0.2748" style="stop-color:#D1DDEB"/>
		<stop  offset="0.339" style="stop-color:#E4EFF7"/>
		<stop  offset="0.4061" style="stop-color:#ECF8FE"/>
		<stop  offset="0.4766" style="stop-color:#E8F3FB"/>
		<stop  offset="0.5491" style="stop-color:#DBE7F6"/>
		<stop  offset="0.6223" style="stop-color:#C6D6EE"/>
		<stop  offset="0.6545" style="stop-color:#BACDEA"/>
		<stop  offset="0.7036" style="stop-color:#B6CBE9"/>
		<stop  offset="0.7523" style="stop-color:#ABC3E6"/>
		<stop  offset="0.801" style="stop-color:#98B7E0"/>
		<stop  offset="0.8494" style="stop-color:#7DA7D9"/>
		<stop  offset="0.8545" style="stop-color:#7AA5D8"/>
		<stop  offset="1" style="stop-color:#174D6B"/>
	</linearGradient>
	<circle fill="url(#SVGID_1_)" cx="15.848" cy="93.324" r="16"/>
	<linearGradient id="SVGID_2_" gradientUnits="userSpaceOnUse" x1="-104.3262" y1="90.9863" x2="-81.6979" y2="68.3581">
		<stop  offset="0" style="stop-color:#35517D"/>
		<stop  offset="0.0268" style="stop-color:#47618A"/>
		<stop  offset="0.0875" style="stop-color:#6E84A9"/>
		<stop  offset="0.1493" style="stop-color:#94A6C4"/>
		<stop  offset="0.2117" style="stop-color:#B6C4DA"/>
		<stop  offset="0.2748" style="stop-color:#D1DDEB"/>
		<stop  offset="0.339" style="stop-color:#E4EFF7"/>
		<stop  offset="0.4061" style="stop-color:#ECF8FE"/>
		<stop  offset="0.4766" style="stop-color:#E8F3FB"/>
		<stop  offset="0.5491" style="stop-color:#DBE7F6"/>
		<stop  offset="0.6223" style="stop-color:#C6D6EE"/>
		<stop  offset="0.6545" style="stop-color:#BACDEA"/>
		<stop  offset="0.7036" style="stop-color:#B6CBE9"/>
		<stop  offset="0.7523" style="stop-color:#ABC3E6"/>
		<stop  offset="0.801" style="stop-color:#98B7E0"/>
		<stop  offset="0.8494" style="stop-color:#7DA7D9"/>
		<stop  offset="0.8545" style="stop-color:#7AA5D8"/>
		<stop  offset="1" style="stop-color:#174D6B"/>
	</linearGradient>
	<circle fill="url(#SVGID_2_)" cx="-93.012" cy="79.672" r="16"/>
	<linearGradient id="SVGID_3_" gradientUnits="userSpaceOnUse" x1="46.8809" y1="94.749" x2="69.5089" y2="72.121">
		<stop  offset="0" style="stop-color:#35517D"/>
		<stop  offset="0.0268" style="stop-color:#47618A"/>
		<stop  offset="0.0875" style="stop-color:#6E84A9"/>
		<stop  offset="0.1493" style="stop-color:#94A6C4"/>
		<stop  offset="0.2117" style="stop-color:#B6C4DA"/>
		<stop  offset="0.2748" style="stop-color:#D1DDEB"/>
		<stop  offset="0.339" style="stop-color:#E4EFF7"/>
		<stop  offset="0.4061" style="stop-color:#ECF8FE"/>
		<stop  offset="0.4766" style="stop-color:#E8F3FB"/>
		<stop  offset="0.5491" style="stop-color:#DBE7F6"/>
		<stop  offset="0.6223" style="stop-color:#C6D6EE"/>
		<stop  offset="0.6545" style="stop-color:#BACDEA"/>
		<stop  offset="0.7036" style="stop-color:#B6CBE9"/>
		<stop  offset="0.7523" style="stop-color:#ABC3E6"/>
		<stop  offset="0.801" style="stop-color:#98B7E0"/>
		<stop  offset="0.8494" style="stop-color:#7DA7D9"/>
		<stop  offset="0.8545" style="stop-color:#7AA5D8"/>
		<stop  offset="1" style="stop-color:#174D6B"/>
	</linearGradient>
	<circle fill="url(#SVGID_3_)" cx="58.194" cy="83.435" r="16"/>
	<linearGradient id="SVGID_4_" gradientUnits="userSpaceOnUse" x1="128.1162" y1="65.8584" x2="150.7443" y2="43.2303">
		<stop  offset="0" style="stop-color:#35517D"/>
		<stop  offset="0.0268" style="stop-color:#47618A"/>
		<stop  offset="0.0875" style="stop-color:#6E84A9"/>
		<stop  offset="0.1493" style="stop-color:#94A6C4"/>
		<stop  offset="0.2117" style="stop-color:#B6C4DA"/>
		<stop  offset="0.2748" style="stop-color:#D1DDEB"/>
		<stop  offset="0.339" style="stop-color:#E4EFF7"/>
		<stop  offset="0.4061" style="stop-color:#ECF8FE"/>
		<stop  offset="0.4766" style="stop-color:#E8F3FB"/>
		<stop  offset="0.5491" style="stop-color:#DBE7F6"/>
		<stop  offset="0.6223" style="stop-color:#C6D6EE"/>
		<stop  offset="0.6545" style="stop-color:#BACDEA"/>
		<stop  offset="0.7036" style="stop-color:#B6CBE9"/>
		<stop  offset="0.7523" style="stop-color:#ABC3E6"/>
		<stop  offset="0.801" style="stop-color:#98B7E0"/>
		<stop  offset="0.8494" style="stop-color:#7DA7D9"/>
		<stop  offset="0.8545" style="stop-color:#7AA5D8"/>
		<stop  offset="1" style="stop-color:#174D6B"/>
	</linearGradient>
	<circle fill="url(#SVGID_4_)" cx="139.43" cy="54.544" r="16"/>
</g>
<g id="Layer_7">
	<path fill="#FFFFFF" d="M-81.852,77.745l-1.998-2.521v-2.409l-0.863-1.902h-7.785l-0.916-0.887l0.901-0.885l0.898,0.893
		l6.456-0.004l-0.84-1.791l-5.141-1.141h-1.017l-1.688-1.094l0.184,1.216l-1.907-0.962l0.106,1.085l-3.705,1.79l-0.561,0.896h3.648
		l0.882-0.896l0.897,0.893l-0.897,0.887h-5.106l-1.074,1.793v4.21l-1.313-1.139l-1.556,2.845l1.036,3.923l-0.732-0.381l-1.361,2.177
		l2.227,2.257c1.447-0.106,2.826-0.196,4.136-0.274l0.257,2.468l-1.896,0.114l3.585,3.657l7.628-1.477l2.611-3.016l-2.342,0.142
		v-2.298c2.869-0.064,4.494-0.045,4.494-0.045l2.08-2.405l-0.861-0.955L-81.852,77.745z"/>
	<path fill="#FFFFFF" d="M106.026,52.617l-1.998-2.521v-2.409l-0.862-1.901h-7.785l-0.916-0.887l0.901-0.886l0.898,0.893
		l6.456-0.003l-0.84-1.793l-5.142-1.139h-1.017l-1.688-1.094l0.184,1.215l-1.907-0.963l0.106,1.086l-3.705,1.79l-0.561,0.897h3.648
		l0.882-0.897l0.897,0.894l-0.897,0.887h-5.106l-1.074,1.792v4.21l-1.313-1.139l-1.556,2.845l1.036,3.923l-0.732-0.381l-1.361,2.177
		l2.227,2.257c1.447-0.106,2.826-0.196,4.136-0.274l0.257,2.468L87.3,63.777l3.585,3.657l7.629-1.477l2.61-3.016l-2.341,0.142
		v-2.298c2.868-0.064,4.494-0.045,4.494-0.045l2.08-2.405l-0.861-0.955L106.026,52.617z"/>
	<linearGradient id="SVGID_5_" gradientUnits="userSpaceOnUse" x1="85.9648" y1="62.6318" x2="103.6836" y2="44.9131">
		<stop  offset="0" style="stop-color:#35517D"/>
		<stop  offset="0.0268" style="stop-color:#47618A"/>
		<stop  offset="0.0875" style="stop-color:#6E84A9"/>
		<stop  offset="0.1493" style="stop-color:#94A6C4"/>
		<stop  offset="0.2117" style="stop-color:#B6C4DA"/>
		<stop  offset="0.2748" style="stop-color:#D1DDEB"/>
		<stop  offset="0.339" style="stop-color:#E4EFF7"/>
		<stop  offset="0.4061" style="stop-color:#ECF8FE"/>
		<stop  offset="0.4766" style="stop-color:#E8F3FB"/>
		<stop  offset="0.5491" style="stop-color:#DBE7F6"/>
		<stop  offset="0.6223" style="stop-color:#C6D6EE"/>
		<stop  offset="0.6545" style="stop-color:#BACDEA"/>
		<stop  offset="0.7036" style="stop-color:#B6CBE9"/>
		<stop  offset="0.7523" style="stop-color:#ABC3E6"/>
		<stop  offset="0.801" style="stop-color:#98B7E0"/>
		<stop  offset="0.8494" style="stop-color:#7DA7D9"/>
		<stop  offset="0.8545" style="stop-color:#7AA5D8"/>
		<stop  offset="1" style="stop-color:#174D6B"/>
	</linearGradient>
	<path fill="url(#SVGID_5_)" d="M106.026,52.617l-1.998-2.521v-2.409l-0.862-1.901h-7.785l-0.916-0.887l0.901-0.886l0.898,0.893
		l6.456-0.003l-0.84-1.793l-5.142-1.139h-1.017l-1.688-1.094l0.184,1.215l-1.907-0.963l0.106,1.086l-3.705,1.79l-0.561,0.897h3.648
		l0.882-0.897l0.897,0.894l-0.897,0.887h-5.106l-1.074,1.792v4.21l-1.313-1.139l-1.556,2.845l1.036,3.923l-0.732-0.381l-1.361,2.177
		l2.227,2.257c1.447-0.106,2.826-0.196,4.136-0.274l0.257,2.468L87.3,63.777l3.585,3.657l7.629-1.477l2.61-3.016l-2.341,0.142
		v-2.298c2.868-0.064,4.494-0.045,4.494-0.045l2.08-2.405l-0.861-0.955L106.026,52.617z"/>
</g>
<g id="Layer_2">
	<g>
		<path fill="#241F59" d="M8.433,102.571l3.585,3.657l7.628-1.477l2.61-3.016L8.433,102.571z M19.173,103.931l-6.852,1.326
			l-1.873-1.909l9.738-0.591L19.173,103.931z"/>
		<path fill="#241F59" d="M20.585,88.829c-0.309-1.04-1.064-1.611-2.126-1.611c-0.151,0-0.608,0.039-0.608,0.039l0.236,0.433
			c0.119-0.017,0.242-0.026,0.372-0.026c0.874,0,1.445,0.436,1.7,1.293h0.463L20.585,88.829z"/>
		<path fill="#241F59" d="M9.451,88.624c0.31-1.039,1.063-1.612,2.127-1.612c0.152,0,0.609,0.04,0.609,0.04l-0.238,0.434
			c-0.116-0.018-0.242-0.027-0.372-0.027c-0.873,0-1.445,0.435-1.699,1.293H9.415L9.451,88.624z"/>
		<path fill="#241F59" d="M11.785,88.447c-1.733,0-1.733,1.868-1.733,1.868v4.993c1.071-0.729,3.5-0.479,3.5-0.479v-4.615
			C13.551,90.214,13.517,88.447,11.785,88.447z M13.048,94.292c-0.149-0.003-0.301-0.007-0.45-0.007
			c-0.817,0-1.503,0.083-2.044,0.246v-4.216c0.002-0.139,0.046-1.367,1.23-1.367c1.203,0,1.26,1.145,1.263,1.275V94.292z"/>
		<path fill="#241F59" d="M13.551,94.827l0.001-3.528c0,0-0.022-1.163-1.163-1.163c-1.141,0-1.141,1.23-1.141,1.23v3.515
			C11.249,94.881,12.326,94.679,13.551,94.827z"/>
		<path fill="#FFFFFF" d="M12.48,92.424v-0.636c0,0,0-0.575,0.531-0.575c0.531,0,0.542,0.543,0.542,0.543v0.606
			c0,0,0,0.574-0.531,0.574s-0.542-0.543-0.542-0.543"/>
		<path fill="#241F59" d="M17.469,88.447c-1.732,0-1.732,1.868-1.732,1.868v4.811c1.459-0.832,3.5-0.112,3.5-0.112v-4.8
			C19.236,90.214,19.202,88.447,17.469,88.447z M18.732,94.36c-0.326-0.069-0.786-0.14-1.285-0.14c-0.434,0-0.84,0.053-1.208,0.155
			v-4.061c0.001-0.139,0.046-1.367,1.229-1.367c1.204,0,1.262,1.145,1.263,1.275V94.36z"/>
		<path fill="#241F59" d="M19.236,95.014v-3.707c0,0-0.021-1.161-1.164-1.161c-1.141,0-1.141,1.23-1.141,1.23v3.378
			C16.932,94.754,17.754,94.537,19.236,95.014z"/>
		<path fill="#FFFFFF" d="M18.164,92.424v-0.636c0,0,0-0.575,0.531-0.575c0.53,0,0.542,0.543,0.542,0.543v0.606
			c0,0,0,0.574-0.53,0.574c-0.534,0-0.542-0.543-0.542-0.543"/>
		<polygon fill="#241F59" points="13.957,96.479 11.99,95.423 10.927,96.311 11.831,96.912 12.856,96.912 11.96,96.311 
			12.317,95.943 		"/>
		<polygon fill="#241F59" points="15.267,96.479 17.125,95.423 18.144,96.377 17.49,96.912 16.438,96.912 17.212,96.321 
			16.833,95.986 		"/>
		<path fill="#241F59" d="M27.159,91.411l-1.998-2.521v-2.409l-0.862-1.902h-7.785l-0.916-0.887l0.901-0.885l0.898,0.893
			l6.456-0.004l-0.84-1.791l-5.142-1.141h-1.017l-1.687-1.094l0.183,1.216l-1.907-0.962l0.106,1.085L9.846,82.8l-0.56,0.896h3.647
			l0.882-0.896l0.898,0.893l-0.898,0.887H8.709l-1.075,1.793v3.475l1.212,1.065v-3.345l1.691-2.109l3.91,1.847l-0.213-0.999
			l2.004,0.999l4.213-1.903l1.114,1.205v7.056l-1.744,2.348l3.69,1.146l1.544-0.524l0.46,0.498l-1.45,1.623
			c-6.635-0.07-17.821,0.578-17.821,0.578l-1.35-1.306l0.615-1.043l1.073,0.501l2.264-0.46v-5.392l-2.524-2.188l-1.556,2.844
			l1.036,3.923L5.07,95.83l-1.361,2.177l2.226,2.257c11.193-0.82,18.475-0.729,18.475-0.729l2.08-2.405l-0.861-0.955L27.159,91.411z
			 M5.549,92.58l1.158-2.099l1.448,1.246v4.535l-1.482,0.322L5.549,92.58z M25.084,95.843l-1.572,0.479V92.16l1.686-2.271
			l1.309,1.615L25.084,95.843z"/>
		<path fill="#241F59" d="M10.031,99.603l0.305,2.927l0.677-0.038l-0.131-1.131c0,0,4.423-0.281,8.344-0.501l-0.005,1.294
			l0.695-0.059v-2.876h-0.69l0.012,1.018c0,0-3.844,0.243-8.418,0.51l-0.125-1.169L10.031,99.603z"/>
		<polygon fill="#241F59" points="24.05,92.537 25.187,90.952 25.879,91.805 24.79,95.139 23.952,95.393 25.271,91.86 
			25.084,91.609 		"/>
		<polygon fill="#241F59" points="7.03,95.745 6.149,92.83 6.903,91.448 7.837,92.205 7.053,91.955 6.637,92.842 7.721,95.584 		"/>
	</g>
	<path fill="#FFFFFF" d="M103.155,101.079l-1.998-2.521v-2.409l-0.862-1.902H92.51l-0.916-0.887l0.901-0.885l0.898,0.893
		l6.456-0.004l-0.84-1.791l-5.142-1.141h-1.017l-1.688-1.094l0.184,1.216l-1.907-0.962l0.106,1.085l-3.705,1.79l-0.561,0.896h3.648
		l0.882-0.896l0.897,0.893l-0.897,0.887h-5.106l-1.074,1.793v4.21l-1.313-1.139l-1.556,2.845l1.036,3.923l-0.732-0.381l-1.361,2.177
		l2.227,2.257c1.447-0.106,2.826-0.196,4.136-0.274l0.257,2.468l-1.896,0.114l3.585,3.657l7.629-1.477l2.61-3.016l-2.341,0.142
		v-2.298c2.868-0.064,4.494-0.045,4.494-0.045l2.08-2.405l-0.861-0.955L103.155,101.079z M99.508,101.828l1.686-2.27l1.309,1.614
		l-1.422,4.338l-1.572,0.479V101.828z M81.545,102.248l1.158-2.099l1.447,1.246v4.535l-1.482,0.322L81.545,102.248z M95.169,113.599
		l-6.853,1.326l-1.872-1.909l9.738-0.591L95.169,113.599z M87,112.084l-0.123-1.056c0,0,4.424-0.281,8.345-0.501l-0.004,1.061
		L87,112.084z M95.233,109.904c0,0-3.845,0.243-8.418,0.51l-0.086-0.794c3.391-0.193,6.271-0.3,8.496-0.356L95.233,109.904z
		 M100.062,108.421c-6.635-0.07-17.821,0.578-17.821,0.578l-1.35-1.306l0.615-1.043l1.072,0.501l2.264-0.46v-5.042v-0.35v-4.064
		l1.691-2.109l3.91,1.847l-0.214-0.999l2.005,0.999l4.213-1.903l1.114,1.205v7.056l-1.744,2.348l3.69,1.146l1.544-0.524l0.46,0.498
		L100.062,108.421z"/>
	<path fill="#241F59" d="M129.382,25.247l3.585,3.657l7.629-1.477l2.61-3.016L129.382,25.247z M140.122,26.606l-6.853,1.326
		l-1.872-1.909l9.738-0.591L140.122,26.606z"/>
	<path fill="#241F59" d="M148.108,14.087l-1.998-2.521V9.157l-0.862-1.902h-7.785l-0.916-0.887l0.901-0.885l0.898,0.893l6.456-0.003
		l-0.84-1.792l-5.142-1.14h-1.017l-1.688-1.094l0.184,1.215L134.394,2.6l0.106,1.085l-3.705,1.79l-0.561,0.897h3.648l0.882-0.897
		l0.897,0.893l-0.897,0.887h-5.106l-1.074,1.792v4.544l1.211,1.066v-4.414l1.691-2.11l3.91,1.847l-0.214-1l2.005,1l4.213-1.903
		l1.114,1.205v7.056l-1.744,2.348l3.69,1.146l1.544-0.524l0.46,0.498l-1.45,1.623c-6.635-0.07-17.821,0.578-17.821,0.578
		l-1.35-1.306l0.615-1.043l1.072,0.501l2.264-0.46v-5.392l-2.523-2.188l-1.556,2.844l1.036,3.923l-0.732-0.381l-1.361,2.177
		l2.227,2.257c11.193-0.82,18.475-0.729,18.475-0.729l2.08-2.405l-0.861-0.955L148.108,14.087z M126.498,15.256l1.158-2.099
		l1.447,1.246v4.535l-1.482,0.322L126.498,15.256z M146.033,18.519l-1.572,0.479v-4.161l1.686-2.27l1.309,1.615L146.033,18.519z"/>
	<path fill="#241F59" d="M130.98,22.278l0.305,2.927l0.677-0.038l-0.132-1.131c0,0,4.424-0.281,8.345-0.501l-0.005,1.294
		l0.695-0.059v-2.876h-0.69l0.012,1.018c0,0-3.845,0.243-8.418,0.51l-0.126-1.169L130.98,22.278z"/>
	<path fill="#241F59" d="M16,77.324c-8.837,0-16,7.163-16,16.001c0,8.836,7.163,15.999,16,15.999c8.836,0,16-7.163,16-15.999
		C32,84.487,24.836,77.324,16,77.324z M16,108.314c-8.279,0-14.99-6.711-14.99-14.989c0-8.279,6.711-14.991,14.99-14.991
		c8.279,0,14.99,6.712,14.99,14.991C30.99,101.604,24.279,108.314,16,108.314z"/>
	<g>
		<path fill="#241F59" d="M-100.579,88.919l3.585,3.657l7.628-1.477l2.611-3.016L-100.579,88.919z M-89.838,90.278l-6.853,1.326
			l-1.872-1.909l9.739-0.591L-89.838,90.278z"/>
		<path fill="#241F59" d="M-88.426,75.177c-0.309-1.04-1.064-1.611-2.127-1.611c-0.151,0-0.607,0.039-0.607,0.039l0.235,0.433
			c0.119-0.017,0.242-0.026,0.372-0.026c0.874,0,1.446,0.436,1.7,1.293h0.463L-88.426,75.177z"/>
		<path fill="#241F59" d="M-99.561,74.972c0.311-1.039,1.063-1.612,2.127-1.612c0.152,0,0.609,0.04,0.609,0.04l-0.237,0.434
			c-0.116-0.018-0.242-0.027-0.372-0.027c-0.872,0-1.445,0.435-1.699,1.293h-0.463L-99.561,74.972z"/>
		<path fill="#241F59" d="M-97.227,74.795c-1.732,0-1.732,1.868-1.732,1.868v4.993c1.07-0.729,3.499-0.479,3.499-0.479v-4.615
			C-95.46,76.562-95.495,74.795-97.227,74.795z M-95.963,80.64c-0.148-0.003-0.301-0.007-0.449-0.007
			c-0.817,0-1.504,0.083-2.045,0.246v-4.216c0.002-0.139,0.047-1.367,1.23-1.367c1.203,0,1.261,1.145,1.264,1.275V80.64z"/>
		<path fill="#241F59" d="M-95.46,81.175l0.001-3.528c0,0-0.021-1.163-1.162-1.163c-1.142,0-1.142,1.23-1.142,1.23v3.515
			C-97.763,81.229-96.686,81.026-95.46,81.175z"/>
		<path fill="#FFFFFF" d="M-96.532,78.771v-0.636c0,0,0-0.575,0.531-0.575s0.541,0.543,0.541,0.543v0.606c0,0,0,0.574-0.531,0.574
			s-0.541-0.543-0.541-0.543"/>
		<path fill="#241F59" d="M-91.542,74.795c-1.732,0-1.732,1.868-1.732,1.868v4.811c1.459-0.832,3.5-0.112,3.5-0.112v-4.8
			C-89.775,76.562-89.809,74.795-91.542,74.795z M-90.279,80.708c-0.326-0.069-0.786-0.14-1.285-0.14
			c-0.434,0-0.841,0.053-1.208,0.155v-4.061c0.002-0.139,0.047-1.367,1.229-1.367c1.205,0,1.263,1.145,1.263,1.275V80.708z"/>
		<path fill="#241F59" d="M-89.775,81.361v-3.707c0,0-0.02-1.161-1.165-1.161c-1.141,0-1.141,1.23-1.141,1.23v3.378
			C-92.081,81.102-91.258,80.885-89.775,81.361z"/>
		<path fill="#FFFFFF" d="M-90.848,78.771v-0.636c0,0,0-0.575,0.532-0.575c0.529,0,0.541,0.543,0.541,0.543v0.606
			c0,0,0,0.574-0.529,0.574c-0.535,0-0.543-0.543-0.543-0.543"/>
		<polygon fill="#241F59" points="-95.055,82.827 -97.022,81.771 -98.084,82.658 -97.18,83.26 -96.155,83.26 -97.051,82.658 
			-96.695,82.291 		"/>
		<polygon fill="#241F59" points="-93.745,82.827 -91.887,81.771 -90.868,82.725 -91.522,83.26 -92.573,83.26 -91.799,82.669 
			-92.179,82.334 		"/>
		<path fill="#241F59" d="M-81.852,77.759l-1.998-2.521v-2.409l-0.863-1.902h-7.786l-0.915-0.887l0.901-0.885l0.898,0.893
			l6.456-0.004l-0.84-1.791l-5.141-1.141h-1.018l-1.687-1.094l0.183,1.216l-1.906-0.962l0.105,1.085l-3.705,1.79l-0.56,0.896h3.647
			l0.883-0.896l0.897,0.893l-0.897,0.887h-5.107l-1.074,1.793v3.475l1.212,1.065v-3.345l1.69-2.109l3.91,1.847l-0.213-0.999
			l2.004,0.999l4.213-1.903l1.115,1.205v7.056l-1.744,2.348l3.689,1.146l1.545-0.524l0.459,0.498l-1.449,1.623
			c-6.635-0.07-17.823,0.578-17.823,0.578l-1.35-1.306l0.615-1.043l1.072,0.501l2.265-0.46v-5.392l-2.524-2.188l-1.555,2.844
			l1.035,3.923l-0.732-0.381l-1.361,2.177l2.227,2.257c11.193-0.82,18.475-0.729,18.475-0.729l2.08-2.405l-0.861-0.955
			L-81.852,77.759z M-103.462,78.928l1.157-2.099l1.448,1.246v4.535l-1.482,0.322L-103.462,78.928z M-83.928,82.19l-1.572,0.479
			v-4.161l1.686-2.271l1.309,1.615L-83.928,82.19z"/>
		<path fill="#241F59" d="M-98.981,85.95l0.305,2.927l0.678-0.038l-0.132-1.131c0,0,4.423-0.281,8.345-0.501l-0.006,1.294
			l0.695-0.059v-2.876h-0.689l0.012,1.018c0,0-3.845,0.243-8.418,0.51l-0.126-1.169L-98.981,85.95z"/>
		<polygon fill="#241F59" points="-84.961,78.885 -83.824,77.3 -83.133,78.152 -84.221,81.486 -85.059,81.74 -83.74,78.208 
			-83.928,77.957 		"/>
		<polygon fill="#241F59" points="-101.982,82.093 -102.863,79.178 -102.108,77.796 -101.174,78.553 -101.958,78.303 
			-102.375,79.189 -101.292,81.932 		"/>
	</g>
	<path fill="#241F59" d="M-93.012,63.672c-8.836,0-16,7.163-16,16.001c0,8.836,7.164,15.999,16,15.999c8.836,0,16-7.163,16-15.999
		C-77.012,70.835-84.176,63.672-93.012,63.672z M-93.012,94.662c-8.278,0-14.99-6.711-14.99-14.989
		c0-8.279,6.712-14.991,14.99-14.991c8.28,0,14.991,6.712,14.991,14.991C-78.021,87.951-84.732,94.662-93.012,94.662z"/>
	<g>
		<path fill="#241F59" d="M87.3,63.791l3.585,3.657l7.628-1.477l2.611-3.016L87.3,63.791z M98.04,65.15l-6.853,1.326l-1.872-1.909
			l9.738-0.591L98.04,65.15z"/>
		<path fill="#241F59" d="M99.452,50.048c-0.309-1.039-1.064-1.611-2.127-1.611c-0.151,0-0.607,0.039-0.607,0.039l0.235,0.434
			c0.119-0.018,0.242-0.025,0.372-0.025c0.873,0,1.445,0.434,1.699,1.291h0.463L99.452,50.048z"/>
		<path fill="#241F59" d="M88.317,49.844c0.311-1.04,1.063-1.612,2.127-1.612c0.152,0,0.609,0.039,0.609,0.039l-0.237,0.435
			c-0.116-0.017-0.242-0.026-0.372-0.026c-0.872,0-1.445,0.434-1.699,1.291h-0.463L88.317,49.844z"/>
		<path fill="#241F59" d="M90.651,49.667c-1.732,0-1.732,1.869-1.732,1.869v4.992c1.07-0.729,3.499-0.479,3.499-0.479v-4.614
			C92.418,51.435,92.384,49.667,90.651,49.667z M91.915,55.512c-0.148-0.003-0.301-0.007-0.449-0.007
			c-0.817,0-1.504,0.083-2.045,0.246v-4.215c0.002-0.141,0.047-1.367,1.23-1.367c1.203,0,1.261,1.145,1.264,1.273V55.512z"/>
		<path fill="#241F59" d="M92.418,56.047l0.001-3.528c0,0-0.021-1.164-1.162-1.164c-1.142,0-1.142,1.231-1.142,1.231v3.515
			C90.115,56.101,91.192,55.898,92.418,56.047z"/>
		<path fill="#FFFFFF" d="M91.347,53.644v-0.636c0,0,0-0.575,0.531-0.575s0.541,0.543,0.541,0.543v0.606c0,0,0,0.574-0.531,0.574
			s-0.541-0.543-0.541-0.543"/>
		<path fill="#241F59" d="M96.336,49.667c-1.732,0-1.732,1.869-1.732,1.869v4.81c1.459-0.832,3.499-0.112,3.499-0.112v-4.799
			C98.103,51.435,98.069,49.667,96.336,49.667z M97.599,55.58c-0.325-0.069-0.785-0.14-1.284-0.14c-0.434,0-0.841,0.053-1.208,0.155
			v-4.06c0.002-0.141,0.047-1.367,1.229-1.367c1.204,0,1.263,1.145,1.263,1.273V55.58z"/>
		<path fill="#241F59" d="M98.103,56.233v-3.707c0,0-0.02-1.162-1.164-1.162c-1.141,0-1.141,1.23-1.141,1.23v3.379
			C95.798,55.974,96.62,55.757,98.103,56.233z"/>
		<path fill="#FFFFFF" d="M97.03,53.644v-0.636c0,0,0-0.575,0.531-0.575c0.529,0,0.541,0.543,0.541,0.543v0.606
			c0,0,0,0.574-0.529,0.574c-0.534,0-0.543-0.543-0.543-0.543"/>
		<polygon fill="#241F59" points="92.823,57.699 90.856,56.643 89.794,57.53 90.698,58.132 91.724,58.132 90.827,57.53 
			91.184,57.163 		"/>
		<polygon fill="#241F59" points="94.134,57.699 95.991,56.643 97.011,57.597 96.356,58.132 95.306,58.132 96.079,57.541 
			95.699,57.206 		"/>
		<path fill="#241F59" d="M106.026,52.631l-1.998-2.521v-2.409l-0.863-1.901H95.38l-0.915-0.887l0.901-0.886l0.898,0.893
			l6.455-0.003l-0.84-1.793l-5.141-1.139h-1.018l-1.687-1.094l0.183,1.215l-1.906-0.963l0.105,1.086l-3.705,1.79l-0.56,0.897H91.8
			l0.883-0.897l0.897,0.894L92.683,45.8h-5.107l-1.074,1.791v3.476l1.212,1.065v-3.345l1.69-2.11l3.91,1.848l-0.213-1l2.004,1
			l4.213-1.903l1.115,1.205v7.056l-1.744,2.348l3.689,1.146l1.545-0.524l0.459,0.498l-1.449,1.623
			c-6.635-0.07-17.822,0.578-17.822,0.578l-1.35-1.306l0.615-1.043l1.072,0.501l2.265-0.46v-5.392l-2.524-2.188l-1.555,2.845
			l1.035,3.923l-0.732-0.381l-1.361,2.177l2.227,2.257c11.193-0.82,18.475-0.729,18.475-0.729l2.08-2.405l-0.861-0.955
			L106.026,52.631z M84.416,53.8l1.157-2.099l1.448,1.246v4.535l-1.482,0.322L84.416,53.8z M103.95,57.063l-1.572,0.479V53.38
			l1.686-2.27l1.309,1.614L103.95,57.063z"/>
		<path fill="#241F59" d="M88.897,60.822l0.305,2.927l0.678-0.038l-0.132-1.131c0,0,4.423-0.281,8.345-0.501l-0.006,1.294
			l0.695-0.059v-2.876h-0.689l0.012,1.018c0,0-3.845,0.243-8.418,0.51l-0.126-1.169L88.897,60.822z"/>
		<polygon fill="#241F59" points="102.917,53.757 104.054,52.171 104.745,53.024 103.657,56.358 102.819,56.612 104.138,53.08 
			103.95,52.829 		"/>
		<polygon fill="#241F59" points="85.896,56.965 85.016,54.05 85.771,52.668 86.704,53.425 85.92,53.175 85.504,54.062 
			86.587,56.804 		"/>
	</g>
	<path fill="#241F59" d="M94.866,38.544c-8.836,0-16,7.163-16,16.001c0,8.836,7.164,15.999,16,15.999s16-7.163,16-15.999
		C110.866,45.707,103.702,38.544,94.866,38.544z M94.866,69.534c-8.278,0-14.99-6.711-14.99-14.989
		c0-8.28,6.712-14.991,14.99-14.991c8.279,0,14.99,6.711,14.99,14.991C109.856,62.823,103.146,69.534,94.866,69.534z"/>
</g>
<g id="Blue_Monkey" display="none">
	<g display="inline">
		<path fill="#241F59" d="M6.964,25.354l-0.025,0.021L6.016,25.53l-1.062-1.231l1.895-1.702l0.033-0.001l0.713,0.727l0.385,0.457
			l-0.231,0.689l-0.019,0.016l-0.667,0.162L6.964,25.354z M6.515,24.497l-0.277-0.321l-0.381,0.331l0.303,0.311L6.515,24.497z
			 M7.188,23.798l-0.242-0.286l-0.339,0.295l0.259,0.281L7.188,23.798z"/>
		<path fill="#241F59" d="M7.829,26.129l0.612,0.473L7.925,27.2l-1.207-1.033l0.221-0.243c0,0,1.368-1.644,1.431-1.722l0.688,0.512
			L7.829,26.129z"/>
		<path fill="#241F59" d="M11.253,26.15l-1.036,2.018l-0.423,0.085l-1.438-0.769l-0.063-0.202l1.209-2.066l0.647,0.359l-0.848,1.533
			l0.473,0.195l0.841-1.512L11.253,26.15z"/>
		<path fill="#241F59" d="M12.19,29.253l-1.555-0.567l0.845-2.321l0.188-0.049l1.355,0.45l-0.24,0.624l-0.754-0.264l-0.12,0.314
			l0.575,0.199l-0.215,0.58l-0.599-0.222l-0.114,0.333l0.887,0.29L12.19,29.253z"/>
		<path fill="#241F59" d="M14.288,27.025l0.414,1.049l0.614-0.94l0.679,0.096l-0.172,2.556l-0.787-0.027l0.088-1.364l-0.258,0.445
			l-0.455-0.014l-0.183-0.514l-0.148,1.332l-0.785-0.086l0.315-2.519L14.288,27.025z"/>
		<path fill="#241F59" d="M18.566,29.024l-0.035,0.481l-1.225,0.188h-0.745l-0.216-2.483l1.791-0.232L18.566,29.024z M17.749,28.9
			l-0.179-1.108l-0.467,0.027l0.11,1.162L17.749,28.9z"/>
		<path fill="#241F59" d="M21.297,28.701l-0.73,0.258l-0.262-0.745l-0.75-0.491L20,29.129l-0.711,0.221l-0.795-2.361l0.67-0.297
			l0.854,0.609l-0.266-0.788l0.756-0.259L21.297,28.701z"/>
		<path fill="#241F59" d="M21.391,25.79l0.535,0.884l0.215-0.484l-0.352-0.642l0.764-0.382l0.389,0.799l-0.277,0.523l0.561-0.066
			l0.705,0.861l-0.734,0.489l-0.406-0.605l-0.557-0.035l0.525,0.842l-0.705,0.447L20.715,26.2L21.391,25.79z"/>
		<path fill="#241F59" d="M25.668,25.842l-1.262,1.072l-1.602-1.882l0.051-0.188l1.063-0.955l0.422,0.517l-0.602,0.524l0.215,0.261
			l0.457-0.401l0.396,0.473l-0.488,0.411l0.234,0.266l0.689-0.63L25.668,25.842z"/>
		<path fill="#241F59" d="M25.738,24.363l-0.67,0.197l-1.043-0.673l0.492-0.683l0.697,0.502l0.273-0.083l0.027-0.28l-0.627-0.568
			l0.555-0.638l0.875,0.889l-0.07,0.775l0.727,0.596l-0.469,0.593L25.738,24.363z"/>
	</g>
	<g display="inline">
		<g>
			<path fill="#241F59" d="M5.842,6.904l0.391,0.318L5.895,7.646l0.088,0.098L6.587,7.44l0.676,0.606L6.632,9.005L6.129,8.669
				l0.44-0.489L6.441,8.065L5.751,8.331L5.199,7.818l0.265-0.41L5.842,6.904z"/>
			<path fill="#241F59" d="M7.935,6.571L7.483,7.067l0.442,0.428l-0.43,0.411L6.191,6.566l0.794-0.809L7.34,5.764l0.524,0.5
				L7.935,6.571z M7.186,6.776l0.215-0.238L7.149,6.292l-0.21,0.194l0.004,0.042L7.186,6.776z"/>
			<path fill="#241F59" d="M8.807,5.945L8.739,6.021l0.365,0.454L8.635,6.829L7.522,5.341l0.699-0.577l0.413-0.208l0.632,0.789
				L9.163,5.548l0.612,0.209L9.482,6.271L8.807,5.945z M8.446,5.701L8.68,5.5L8.45,5.179L8.198,5.371L8.446,5.701z"/>
			<path fill="#241F59" d="M10.974,5.316L9.928,5.881L9.085,4.32l0.063-0.124l0.888-0.513l0.22,0.427L9.755,4.389l0.111,0.214
				l0.381-0.212l0.209,0.391l-0.405,0.216l0.125,0.221l0.578-0.339L10.974,5.316z"/>
			<path fill="#241F59" d="M12.481,4.711l-0.497,0.222l-0.166-0.338l-0.388,0.193l0.104,0.306l-0.486,0.182l-0.323-1.034
				l0.064-0.864l0.486-0.215l0.669,0.504L12.481,4.711z M11.619,4.204l-0.109-0.22l-0.279-0.262L11.21,4.096l0.075,0.263
				L11.619,4.204z"/>
			<path fill="#241F59" d="M13.706,2.86l0.214,1.052L13.679,4.4L12.62,4.636l-0.459-1.759l1.05-0.287L13.706,2.86z M13.373,3.917
				l-0.184-0.758l-0.35,0.053l0.194,0.83L13.373,3.917z"/>
			<path fill="#241F59" d="M14.63,2.375l0.239,1.843l-0.591,0.113l-0.25-1.857L14.63,2.375z"/>
			<path fill="#241F59" d="M16.626,4.15l-0.554,0.021L16.05,3.604l-0.409-0.497l0.005,1.058l-0.534,0L15.07,2.378l0.524-0.06
				l0.454,0.599L16.036,2.32l0.572-0.016L16.626,4.15z"/>
			<path fill="#241F59" d="M17.38,2.383l1.036,0.119l-0.069,0.521l-0.712-0.085l-0.106,0.801l0.288,0.022l0.052-0.473l0.539,0.057
				l-0.193,1.023l-1.307-0.14l0.141-1.538L17.38,2.383z"/>
			<path fill="#241F59" d="M20.254,2.992l-0.535,1.78l-0.586-0.14l0.531-1.796L20.254,2.992z"/>
			<path fill="#241F59" d="M21.35,5.435l-0.514-0.212L21.051,4.7l-0.164-0.623l-0.436,0.964l-0.484-0.222l0.705-1.642l0.502,0.163
				l0.162,0.733l0.238-0.548L22.1,3.75L21.35,5.435z"/>
			<path fill="#241F59" d="M23.629,5.101L23.027,5.99l-0.516,0.17L21.6,5.569l0.936-1.56l0.939,0.549L23.629,5.101z M22.641,5.604
				l0.412-0.663L22.77,4.729l-0.457,0.72L22.641,5.604z"/>
			<path fill="#241F59" d="M24.617,5.421l-1.145,1.461L22.979,6.54l1.148-1.479L24.617,5.421z"/>
			<path fill="#241F59" d="M25.154,5.899l0.754,0.719l-0.367,0.374l-0.518-0.497L24.457,7.07l0.215,0.193l0.326-0.349l0.398,0.37
				l-0.771,0.701l-0.959-0.899l1.037-1.144L25.154,5.899z"/>
			<path fill="#241F59" d="M25.973,9.109l-0.311,0.158l-0.57-0.683l-0.273-0.458l1.445-1.053l0.807,1.015L25.973,9.109z
				 M25.744,8.561l0.615-0.522L26.17,7.763l-0.674,0.499L25.744,8.561z"/>
		</g>
	</g>
</g>
<g id="Isolation_Mode">
	<path fill="#241F59" d="M16,78.722c-8.052,0-14.603,6.551-14.603,14.604c0,8.052,6.551,14.603,14.603,14.603
		c8.053,0,14.604-6.551,14.604-14.603C30.604,85.272,24.053,78.722,16,78.722z M16,107.517c-7.839,0-14.194-6.354-14.194-14.191
		c0-7.84,6.355-14.194,14.194-14.194c7.84,0,14.193,6.354,14.193,14.194C30.193,101.163,23.84,107.517,16,107.517z"/>
	<path fill="#241F59" d="M-93.012,65.069c-8.051,0-14.602,6.551-14.602,14.604c0,8.052,6.551,14.603,14.602,14.603
		c8.053,0,14.604-6.551,14.604-14.603C-78.408,71.62-84.959,65.069-93.012,65.069z M-93.012,93.864
		c-7.838,0-14.193-6.354-14.193-14.191c0-7.84,6.355-14.194,14.193-14.194c7.84,0,14.194,6.354,14.194,14.194
		C-78.818,87.511-85.172,93.864-93.012,93.864z"/>
	<path fill="#241F59" d="M94.866,39.941c-8.051,0-14.602,6.551-14.602,14.604c0,8.052,6.551,14.603,14.602,14.603
		c8.053,0,14.604-6.551,14.604-14.603C109.47,46.492,102.919,39.941,94.866,39.941z M94.866,68.736
		c-7.838,0-14.193-6.354-14.193-14.191c0-7.84,6.355-14.194,14.193-14.194c7.84,0,14.193,6.354,14.193,14.194
		C109.06,62.383,102.706,68.736,94.866,68.736z"/>
</g>
<g id="Layer_6" display="none">
	<path display="inline" fill="#241F59" d="M4.594,9.513l0.531,0.279c-0.93,1.76-1.458,3.766-1.458,5.896
		c0,2.122,0.525,4.121,1.45,5.878L4.595,21.84c-0.971-1.842-1.522-3.938-1.522-6.164C3.073,13.449,3.625,11.354,4.594,9.513z"/>
	<path display="inline" fill="#241F59" d="M5.536,10.008l0.521,0.274c-0.849,1.611-1.332,3.445-1.332,5.394
		c0,1.947,0.483,3.783,1.332,5.394l-0.53,0.28c-0.889-1.692-1.396-3.618-1.396-5.662C4.131,13.636,4.641,11.704,5.536,10.008z"/>
	<path display="inline" fill="#241F59" d="M27.721,9.625l-0.531,0.279c0.93,1.76,1.459,3.765,1.459,5.895
		c0,2.123-0.527,4.122-1.449,5.878l0.52,0.274c0.971-1.841,1.523-3.938,1.523-6.164C29.242,13.563,28.691,11.466,27.721,9.625z"/>
	<path display="inline" fill="#241F59" d="M26.779,10.121l-0.521,0.273c0.85,1.612,1.33,3.446,1.33,5.394
		c0,1.948-0.48,3.782-1.332,5.395l0.531,0.28c0.891-1.692,1.396-3.618,1.396-5.663C28.184,13.748,27.674,11.816,26.779,10.121z"/>
</g>
<g id="Monkey_image">
	<g>
		<linearGradient id="SVGID_6_" gradientUnits="userSpaceOnUse" x1="6.9346" y1="25.0654" x2="25.0659" y2="6.9341">
			<stop  offset="0.073" style="stop-color:#35517D"/>
			<stop  offset="0.4545" style="stop-color:#DEE6F5"/>
			<stop  offset="0.5697" style="stop-color:#BACDEA"/>
			<stop  offset="0.6283" style="stop-color:#B6CBE9"/>
			<stop  offset="0.6867" style="stop-color:#ABC3E6"/>
			<stop  offset="0.7449" style="stop-color:#98B7E0"/>
			<stop  offset="0.8028" style="stop-color:#7DA7D9"/>
			<stop  offset="0.809" style="stop-color:#7AA5D8"/>
			<stop  offset="1" style="stop-color:#174D6B"/>
		</linearGradient>
		<circle fill="url(#SVGID_6_)" cx="16" cy="16" r="12.821"/>
		<g>
			<linearGradient id="SVGID_7_" gradientUnits="userSpaceOnUse" x1="18.2383" y1="11.8354" x2="19.5147" y2="11.0985">
				<stop  offset="0.2909" style="stop-color:#7AA5D8"/>
				<stop  offset="1" style="stop-color:#003754"/>
			</linearGradient>
			<path fill="url(#SVGID_7_)" d="M20.028,12.125c-0.271-0.916-0.937-1.419-1.875-1.419c-0.134,0-0.536,0.034-0.536,0.034
				l0.209,0.382c0.104-0.015,0.214-0.023,0.327-0.023c0.77,0,1.274,0.383,1.499,1.139h0.409L20.028,12.125z"/>
			<linearGradient id="SVGID_8_" gradientUnits="userSpaceOnUse" x1="10.3447" y1="12.2207" x2="12.3157" y2="10.2498">
				<stop  offset="0.2909" style="stop-color:#7AA5D8"/>
				<stop  offset="1" style="stop-color:#003754"/>
			</linearGradient>
			<path fill="url(#SVGID_8_)" d="M10.214,11.945c0.271-0.917,0.938-1.421,1.874-1.421c0.134,0,0.537,0.035,0.537,0.035
				l-0.209,0.382c-0.104-0.016-0.214-0.023-0.328-0.023c-0.77,0-1.273,0.383-1.498,1.139h-0.41L10.214,11.945z"/>
			<linearGradient id="SVGID_9_" gradientUnits="userSpaceOnUse" x1="10.1162" y1="17.2109" x2="14.2435" y2="13.0836">
				<stop  offset="0.2909" style="stop-color:#7AA5D8"/>
				<stop  offset="1" style="stop-color:#003754"/>
			</linearGradient>
			<path fill="url(#SVGID_9_)" d="M13.828,14.283v-0.937c0,0-0.031-1.558-1.558-1.558s-1.527,1.647-1.527,1.647v4.402
				c0.944-0.644,3.084-0.422,3.084-0.422v-0.001l0.001-3.112C13.829,14.303,13.829,14.294,13.828,14.283z M11.186,13.436
				c0.001-0.122,0.041-1.204,1.084-1.204c1.061,0,1.112,1.008,1.115,1.123v0.081c-0.143-0.096-0.332-0.158-0.582-0.158
				c-1.005,0-1.005,1.085-1.005,1.085v2.654c-0.222,0.035-0.427,0.08-0.612,0.136V13.436z"/>
			<linearGradient id="SVGID_10_" gradientUnits="userSpaceOnUse" x1="13.356" y1="14.2285" x2="13.356" y2="15.7461">
				<stop  offset="0.0667" style="stop-color:#DEE6F5"/>
				<stop  offset="0.6182" style="stop-color:#BACDEA"/>
			</linearGradient>
			<path fill="url(#SVGID_10_)" d="M12.883,15.295v-0.561c0,0,0-0.506,0.468-0.506c0.468,0,0.478,0.477,0.478,0.477v0.536
				c0,0,0,0.505-0.468,0.505c-0.469,0-0.478-0.477-0.478-0.477"/>
			<linearGradient id="SVGID_11_" gradientUnits="userSpaceOnUse" x1="15.249" y1="17.1709" x2="19.2962" y2="13.1238">
				<stop  offset="0.2909" style="stop-color:#7AA5D8"/>
				<stop  offset="1" style="stop-color:#003754"/>
			</linearGradient>
			<path fill="url(#SVGID_11_)" d="M17.282,11.789c-1.528,0-1.528,1.647-1.528,1.647v4.241c1.023-0.583,2.368-0.302,2.876-0.163
				c0.067,0.02,0.137,0.04,0.209,0.063v-3.267v-0.964C18.84,13.347,18.809,11.789,17.282,11.789z M16.198,13.436
				c0-0.122,0.041-1.204,1.084-1.204c1.062,0,1.111,1.008,1.113,1.123v0.089c-0.143-0.095-0.331-0.158-0.581-0.158
				c-1.007,0-1.007,1.084-1.007,1.084v2.535c-0.213,0.021-0.417,0.058-0.609,0.112V13.436z"/>
			<linearGradient id="SVGID_12_" gradientUnits="userSpaceOnUse" x1="18.3667" y1="14.2285" x2="18.3667" y2="15.7461">
				<stop  offset="0.0667" style="stop-color:#DEE6F5"/>
				<stop  offset="0.6182" style="stop-color:#BACDEA"/>
			</linearGradient>
			<path fill="url(#SVGID_12_)" d="M17.895,15.295v-0.561c0,0,0-0.506,0.467-0.506c0.469,0,0.479,0.477,0.479,0.477v0.536
				c0,0,0,0.505-0.469,0.505s-0.477-0.477-0.477-0.477"/>
			<linearGradient id="SVGID_13_" gradientUnits="userSpaceOnUse" x1="12.2192" y1="19.4277" x2="13.481" y2="18.166">
				<stop  offset="0.0667" style="stop-color:#DEE6F5"/>
				<stop  offset="0.1939" style="stop-color:#BACDEA"/>
				<stop  offset="0.3321" style="stop-color:#B6CBE9"/>
				<stop  offset="0.4695" style="stop-color:#ABC3E6"/>
				<stop  offset="0.6066" style="stop-color:#98B7E0"/>
				<stop  offset="0.7429" style="stop-color:#7DA7D9"/>
				<stop  offset="0.7576" style="stop-color:#7AA5D8"/>
			</linearGradient>
			<polygon fill="url(#SVGID_13_)" points="14.185,18.87 12.452,17.938 11.515,18.724 12.312,19.252 13.215,19.252 12.425,18.724 
				12.74,18.396 			"/>
			<linearGradient id="SVGID_14_" gradientUnits="userSpaceOnUse" x1="15.9521" y1="19.4814" x2="17.2659" y2="18.1677">
				<stop  offset="0.2909" style="stop-color:#7AA5D8"/>
				<stop  offset="1" style="stop-color:#003754"/>
			</linearGradient>
			<polygon fill="url(#SVGID_14_)" points="15.34,18.87 16.979,17.938 17.877,18.779 17.3,19.252 16.373,19.252 17.055,18.73 
				16.721,18.436 			"/>
			<linearGradient id="SVGID_15_" gradientUnits="userSpaceOnUse" x1="8.1377" y1="23.2305" x2="23.7576" y2="7.6106">
				<stop  offset="0.0667" style="stop-color:#DEE6F5"/>
				<stop  offset="0.1939" style="stop-color:#BACDEA"/>
				<stop  offset="0.2608" style="stop-color:#B6CBE9"/>
				<stop  offset="0.3273" style="stop-color:#ABC3E6"/>
				<stop  offset="0.3936" style="stop-color:#98B7E0"/>
				<stop  offset="0.4596" style="stop-color:#7DA7D9"/>
				<stop  offset="0.4667" style="stop-color:#7AA5D8"/>
				<stop  offset="1" style="stop-color:#003754"/>
			</linearGradient>
			<path fill="url(#SVGID_15_)" d="M25.825,14.402l-1.762-2.222v-2.123L23.302,8.38h-6.862l-0.808-0.782l0.794-0.78l0.792,0.786
				l5.692-0.003l-0.741-1.579l-4.531-1.004h-0.897l-1.487-0.964l0.161,1.072l-1.681-0.849l0.094,0.957l-3.267,1.579l-0.494,0.79
				h3.216l0.777-0.79l0.792,0.787L14.06,8.38H9.559l-0.948,1.58v3.064l1.069,0.939v-2.95l1.491-1.859l3.446,1.63L14.43,9.9
				l1.766,0.883l3.716-1.679l0.98,1.062v6.221l-1.538,2.07l3.256,1.01l1.359-0.463l0.407,0.439l-1.281,1.43
				c-5.848-0.06-15.709,0.511-15.709,0.511l-1.19-1.149l0.542-0.92l0.945,0.441L9.68,19.35v-4.752l-2.225-1.929l-1.372,2.506
				l0.913,3.461L6.35,18.297l-1.199,1.92l1.963,1.99c1.274-0.094,2.492-0.174,3.646-0.242l0.226,2.175l-1.67,0.102l3.16,3.223
				l6.725-1.302l2.301-2.657l-2.063,0.123v-2.025c2.538-0.057,3.964-0.039,3.964-0.039l1.834-2.119l-0.76-0.844L25.825,14.402z
				 M6.773,15.432l1.021-1.849L9.07,14.68v4l-1.307,0.284L6.773,15.432z M18.783,25.438l-6.04,1.17l-1.651-1.684l8.585-0.519
				L18.783,25.438z M11.582,24.104l-0.108-0.931c0,0,3.9-0.248,7.357-0.442l-0.004,0.936L11.582,24.104z M18.841,22.183
				c0,0-3.389,0.214-7.421,0.449l-0.076-0.702c2.991-0.171,5.526-0.263,7.49-0.313L18.841,22.183z M23.994,18.309l-1.384,0.423
				v-3.668l1.483-2.001l1.156,1.423L23.994,18.309z"/>
			<linearGradient id="SVGID_16_" gradientUnits="userSpaceOnUse" x1="22.9951" y1="15.9551" x2="24.6963" y2="15.9551">
				<stop  offset="0.2909" style="stop-color:#7AA5D8"/>
				<stop  offset="1" style="stop-color:#003754"/>
			</linearGradient>
			<polygon fill="url(#SVGID_16_)" points="23.083,15.396 24.086,13.999 24.696,14.749 23.734,17.689 22.995,17.912 24.159,14.798 
				23.992,14.575 			"/>
			<linearGradient id="SVGID_17_" gradientUnits="userSpaceOnUse" x1="7.2222" y1="17.3652" x2="9.1377" y2="15.4497">
				<stop  offset="0.0667" style="stop-color:#DEE6F5"/>
				<stop  offset="0.1939" style="stop-color:#BACDEA"/>
				<stop  offset="0.3321" style="stop-color:#B6CBE9"/>
				<stop  offset="0.4695" style="stop-color:#ABC3E6"/>
				<stop  offset="0.6066" style="stop-color:#98B7E0"/>
				<stop  offset="0.7429" style="stop-color:#7DA7D9"/>
				<stop  offset="0.7576" style="stop-color:#7AA5D8"/>
			</linearGradient>
			<polygon fill="url(#SVGID_17_)" points="8.079,18.222 7.303,15.651 7.967,14.436 8.791,15.103 8.1,14.881 7.732,15.663 
				8.687,18.082 			"/>
		</g>
		<linearGradient id="SVGID_18_" gradientUnits="userSpaceOnUse" x1="16.0005" y1="32" x2="16.0005" y2="4.882813e-004">
			<stop  offset="0.073" style="stop-color:#115E8C"/>
			<stop  offset="1" style="stop-color:#DEE6F5"/>
		</linearGradient>
		<path fill="url(#SVGID_18_)" d="M16,0C7.178,0,0,7.178,0,16s7.178,16,16,16s16-7.178,16-16S24.823,0,16,0z M16,29.756
			C8.403,29.756,2.244,23.598,2.244,16S8.403,2.244,16,2.244c7.597,0,13.755,6.158,13.755,13.756S23.598,29.756,16,29.756z"/>
		<linearGradient id="SVGID_19_" gradientUnits="userSpaceOnUse" x1="15.9995" y1="2.2441" x2="15.9995" y2="29.7563">
			<stop  offset="0.073" style="stop-color:#35517D"/>
			<stop  offset="1" style="stop-color:#DEE6F5"/>
		</linearGradient>
		<path fill="url(#SVGID_19_)" d="M16,2.244C8.403,2.244,2.244,8.402,2.244,16S8.403,29.756,16,29.756
			c7.597,0,13.755-6.158,13.755-13.756S23.598,2.244,16,2.244z M16,28.82C8.919,28.82,3.179,23.081,3.179,16
			C3.179,8.919,8.919,3.179,16,3.179c7.081,0,12.82,5.741,12.82,12.821C28.82,23.081,23.081,28.82,16,28.82z"/>
	</g>
</g>
<g id="moji">
</g>
</svg>
